<svg xmlns="http://www.w3.org/2000/svg" xmlns:xlink="http://www.w3.org/1999/xlink" viewBox="0,0,256,256" width="50px" height="50px" fill-rule="nonzero"><defs><clipPath id="clip-1"><path d="M0,256v-256h256v256zM241.06667,226.18074v-32.75378c0,-2.32296 -2.09067,-4.41363 -4.41363,-4.41363h-32.98607c-2.55526,0 -4.41363,1.85837 -4.41363,4.41363v32.98607c0,2.32296 2.09067,4.41363 4.41363,4.41363h32.98607c2.55526,0 4.41363,-2.09067 4.41363,-4.64593z" id="overlayBgMask" fill="none" opacity="0.5"></path></clipPath></defs><g clip-path="url(#clip-1)" fill="none" fill-rule="nonzero" stroke="none" strokeWidth="1" stroke-linecap="butt" stroke-linejoin="miter" stroke-miterlimit="10" stroke-dasharray="" stroke-dashoffset="0" font-family="none" font-weight="none" font-size="none" text-anchor="none" style="mix-blend-mode: normal"><g transform="scale(5.12,5.12)" fill="#0cb58e"><path d="M41,5c-6.78906,-0.00781 -10.53125,3.79688 -12.83203,11.21094c1.20313,-0.44531 2.41016,-0.99609 3.50391,-0.99609c2.30078,0 3.06641,0.85547 2.73828,3.51172c-0.10937,1.66016 -0.76562,4.33984 -2.73828,7.4375c-1.97266,2.98828 -3.6875,3.83594 -4.67187,3.83594c-1.20312,0 -2.11719,-1.73047 -3.10156,-6.37891c-0.32812,-1.32812 -1.09375,-4.31641 -1.97266,-9.95703c-0.76562,-5.19922 -3.3125,-7.99609 -6.92578,-7.66406c-1.53125,0.10938 -3.36328,1.53516 -6.42969,4.19141c-2.19141,1.99219 -4.26953,3.42969 -6.57031,5.42188l2.19141,2.80859c2.07813,-1.4375 3.28516,-1.99219 3.61328,-1.99219c1.53125,0 2.95313,2.43359 4.37891,7.41406c1.20313,4.53516 2.51563,9.07031 3.72266,13.60547c1.85938,4.98047 4.16016,7.41406 6.78906,7.41406c4.37891,0 9.63281,-3.98047 15.875,-12.16797c6.12891,-7.74609 9.21094,-14.16016 9.42969,-18.69531c0.21875,-5.97266 -2.18359,-8.89062 -7,-9z"></path></g></g><g fill="#ed0c19" fill-rule="nonzero" stroke="none" strokeWidth="1" stroke-linecap="butt" stroke-linejoin="miter" stroke-miterlimit="10" stroke-dasharray="" stroke-dashoffset="0" font-family="none" font-weight="none" font-size="none" text-anchor="none" style="mix-blend-mode: normal"><g transform="translate(202.24,192) scale(1.99111,1.99111)" id="overlay"><path d="M16.1,18h-14.2c-1,0 -1.9,-0.9 -1.9,-1.9v-14.2c0,-1.1 0.8,-1.9 1.9,-1.9h14.2c1,0 1.9,0.9 1.9,1.9v14.1c0,1.1 -0.8,2 -1.9,2z"></path></g></g></svg>